 
http://desibbrg.org/images/66952052392581364616.gif
 
http://desibbrg.org/images/08148463226990581773.jpg
 
http://desibbrg.org/images/82602123492967808559.png
 
http://desibbrg.org/images/85267061008325943061.png
 
http://desibbrg.org/images/86820826763399430992.png
 
http://desibbrg.org/images/04535783480966761265.png


Info - 
Presentor: IDream Production
Producer: Shripal Morakhia
Director: Rajeev Patil
Story: Vishwas Patil
Music: Vijay Narayan
Camera: Amalendu Chaudhary
Cast: Meeta Sawarkar, Pramod Pawar, Kishor Kadam, Santosh Juwekar, Shashank Shende, Chinmay Mandlekar, Dhananjay Mandrekar, Narayan Jadhav, Smita Tambe, Hemangi Kavi, Sharvani Pillai, Prashant Patil, Nandinee Jog, Madhugandha Kulkarni, Girish Salvi, Ravi Tayade and Upendra Limaye, Sai Tamhankar.


Media Info - 
General
Complete name                    : Pangira [ 2012 ] - Xvid - MP3 - 1 CD DTHRip.avi
Format                           : AVI
Format/Info                      : Audio Video Interleave
File size                        : 800 MiB
Duration                         : 1h 57mn
Overall bit rate                 : 950 Kbps
Writing library                  : MPlayer

Video
ID                               : 0
Format                           : MPEG-4 Visual
Format profile                   : Advanced Simple@L5
Format settings, BVOP            : Yes
Format settings, QPel            : No
Format settings, GMC             : No warppoints
Format settings, Matrix          : Default (H.263)
Codec ID                         : XVID
Codec ID/Hint                    : XviD
Duration                         : 1h 57mn
Bit rate                         : 817 Kbps
Width                            : 640 pixels
Height                           : 296 pixels
Display aspect ratio             : 2.2:1
Frame rate                       : 25.000 fps
Color space                      : YUV
Chroma subsampling               : 4:2:0
Bit depth                        : 8 bits
Scan type                        : Progressive
Compression mode                 : Lossy
Bits/(Pixel*Frame)               : 0.172
Stream size                      : 688 MiB (86%)
Writing library                  : XviD 1.1.2 (UTC 2006-11-01)

Audio
ID                               : 1
Format                           : MPEG Audio
Format version                   : Version 1
Format profile                   : Layer 3
Mode                             : Joint stereo
Mode extension                   : MS Stereo
Codec ID                         : 55
Codec ID/Hint                    : MP3
Duration                         : 1h 57mn
Bit rate mode                    : Constant
Bit rate                         : 128 Kbps
Channel(s)                       : 2 channels
Sampling rate                    : 44.1 KHz
Compression mode                 : Lossy
Delay relative to video          : 40ms
Stream size                      : 108 MiB (13%)
Alignment                        : Split accross interleaves
Interleave, duration             : 500 ms (12.50 video frames)
Interleave, preload duration     : 500 ms

Ripper : Mr. Cool

Seeding 24x7... Extreme Seeding...


Enjoy!
